<?xml version="1.0"?>
<svg width="73" height="77" xmlns="http://www.w3.org/2000/svg" xmlns:svg="http://www.w3.org/2000/svg">
 <desc/>
 <g>
  <title>Layer 1</title>
  <g id="Shape1">
   <desc fill="#ffffff" transform="translate(-2.0425045490264893,-0.41099169850349426) translate(0,-0.13850416243076324) translate(0,-0.13850416243076324) translate(0.13850416243076324,0) translate(1,0) "/>
   <path id="shapePath1" d="m58.844002,0.271c-1.02,-0.184 -2.035,-0.271 -3.035,-0.271c-8.102001,0 -15.27,5.737 -16.864002,13.932l2.950001,0.54c1.321999,-6.748 7.248001,-11.472 13.914001,-11.471c0.826,0 1.663998,0.07 2.507999,0.223c6.885002,1.222 11.723,7.221001 11.723,13.971c0,0.787001 -0.07,1.586 -0.207001,2.393002l2.953003,0.540998c0.167999,-0.983999 0.253998,-1.965 0.253998,-2.934c-0.000999,-8.188 -5.859001,-15.438 -14.195999,-16.924z" fill="#ffffff" fill-rule="evenodd"/>
  </g>
  <g id="Shape2">
   <desc fill="#ffffff" transform="translate(-2.0425045490264893,-0.41099169850349426) translate(0.13850416243076324,0) translate(-0.13850416243076324,0) translate(0,-0.13850416243076324) translate(0,-0.13850416243076324) translate(0.13850416243076324,0) translate(1,0) "/>
   <path id="shapePath2" d="m53.440002,23.405001l-0.325001,0.284c-0.454002,0.397999 -1.327,0.948999 -2.407001,1.361c-1.083,0.417999 -2.378998,0.714998 -3.736,0.712999c-1.724998,-0.004 -3.536999,-0.453001 -5.327999,-1.746c-2.074001,-1.51 -4.341999,-2.048 -6.385002,-2.042999c-2.009998,0.001999 -3.823999,0.491999 -5.259001,1.045c-1.437,0.556999 -2.486,1.172998 -2.998999,1.511999l0.001999,-0.002001c-0.362,0.247002 -1.562,0.964001 -3.17,1.428001l-7.198999,-20.147l-2.824999,1.01l6.983999,19.547c-1.567001,-0.041 -3.261,-0.461 -5.047,-1.684c-2.191,-1.518 -4.408999,-2.068001 -6.33,-2.063c-1.99,0.001999 -3.651999,0.560999 -4.823,1.109999c-0.161,0.076 -0.312,0.152 -0.454,0.227001l-1.181,-7.039l-2.957999,0.497l0.247999,1.479l8.749,52.167995c0.067,0.405998 0.296,0.762001 0.638,0.992996l0.791,0.537003l0.137,0.082001c0.133,0.06601 7.252998,3.862999 17.720999,3.87001c5.406004,0.000992 11.707003,-1.026009 18.328001,-4.122009l0.074001,-0.037003l0.708,-0.379997c0.404999,-0.218002 0.688,-0.609001 0.769001,-1.062996l8.049,-45.976002l0.006001,-0.004999l-0.004002,-0.004l1.280998,-7.314001l-2.952,-0.531l-1.102997,6.293001m-8.108002,46.301992l-0.011002,0.005005c-6.181999,2.885002 -12.011997,3.830002 -17.037001,3.830002c-4.865,0.000999 -8.973999,-0.891014 -11.851999,-1.779015c-1.439,-0.442986 -2.57,-0.886986 -3.332999,-1.214996c-0.382,-0.164001 -0.671,-0.299004 -0.860001,-0.390999c-0.094,-0.045006 -0.162,-0.078003 -0.205999,-0.102013l-0.183001,-0.125l-7.179,-42.800997c0.22,-0.153 0.698,-0.464001 1.369001,-0.763c0.872,-0.389999 2.047999,-0.747999 3.375999,-0.746c1.373,0.004 2.916,0.358 4.629002,1.533001c2.374997,1.640999 4.823998,2.226 6.972999,2.220999c3.921999,-0.014 6.835999,-1.821999 7.639999,-2.342999l0.003,-0.001001c0.327999,-0.220999 1.233999,-0.757999 2.42,-1.213999c1.189001,-0.460001 2.668001,-0.845001 4.177999,-0.843c1.547001,0.006001 3.105003,0.375 4.623001,1.471001c2.322002,1.688999 4.829002,2.323999 7.09,2.317999c1.789001,0 3.434002,-0.381001 4.815002,-0.913c0.331997,-0.129 0.646,-0.267 0.945999,-0.409l-7.401001,42.266998l0,0.000015z" fill="#ffffff" fill-rule="evenodd"/>
  </g>
  <g id="Shape3">
   <desc fill="#ffffff" transform="translate(-2.0425045490264893,-0.41099169850349426) translate(0,-0.13850416243076324) translate(0,-0.13850416243076324) translate(0.13850416243076324,0) translate(1,0) "/>
   <path id="shapePath3" d="m37.698002,32.701l-0.148003,0.001999l0.014,0c-3.890999,0.072002 -6.99,3.246002 -6.991999,7.118999l0.003998,0.145c0.006001,0.305 0.037003,0.604 0.079998,0.898003l-5.390997,2.098c-1.269001,-1.973 -3.477001,-3.277 -5.984001,-3.277l-0.147999,0.001999l0.012999,0c-3.886998,0.074001 -6.988998,3.243999 -6.988998,7.118l0.002,0.147999l0,-0.012997c0.073,3.886997 3.245001,6.987999 7.118999,6.989998l0.128,-0.001999l0.009001,0c1.462,-0.028999 2.812,-0.496002 3.927999,-1.272999l4.58,3.706997c-0.424,0.912003 -0.667999,1.924 -0.667999,2.993l0.004,0.148003l-0.000999,-0.013c0.073,3.886002 3.242998,6.986004 7.115002,6.988003l0.127998,0l0.010002,0c3.884998,-0.078011 6.987,-3.245003 6.987999,-7.119003l0,-0.126999l0,-0.009003c-0.057999,-2.938 -1.882999,-5.424 -4.442001,-6.465l0.923,-5.822998c3.815002,-0.154999 6.841,-3.286999 6.842003,-7.112999l0,-0.125l0,-0.008003c-0.081001,-3.887997 -3.252003,-6.987999 -7.124001,-6.988998m-14.299004,14.109001c0.002001,2.237 -1.798,4.077999 -4.045,4.119999l0.008001,0l-0.086,0.000999c-2.238001,0 -4.079999,-1.799 -4.118999,-4.044998l-0.001001,-0.014l-0.000999,-0.067001c-0.000999,-2.238998 1.794999,-4.077 4.044999,-4.118l0.013,-0.000999l0.066999,-0.000999c2.238001,-0.000999 4.077,1.794998 4.118999,4.045998l0,0.079002m1.987001,3.642998c0.639,-1.067997 1.012999,-2.312 1.012999,-3.642998l0,-0.129002l0,-0.007999c-0.005999,-0.306999 -0.036999,-0.605 -0.080999,-0.900002l5.393002,-2.099998c0.790998,1.228001 1.942999,2.195999 3.309999,2.75l-0.924999,5.825001c-1.672001,0.064999 -3.189001,0.700001 -4.369001,1.718998l-4.341,-3.514m13.110003,8.830002l0,0.077999c0.001999,2.236 -1.797001,4.076 -4.047001,4.118999l-0.079002,0c-2.234997,0.001999 -4.077002,-1.797001 -4.115999,-4.042999l0,-0.014l-0.002003,-0.067001c0,-2.238998 1.797003,-4.078999 4.045004,-4.118l0.014,-0.000999l0.065998,-0.000999c2.238003,-0.001999 4.077003,1.796001 4.119003,4.047001m3.322998,-19.459c0.001999,2.239998 -1.798,4.080997 -4.047001,4.122997l-0.076,0c-2.241997,0.001003 -4.081997,-1.795998 -4.122997,-4.045998l0,-0.013l-0.002003,-0.066002c0,-2.238998 1.797001,-4.079998 4.047001,-4.118999l0.014,-0.000999l0.066002,-0.000999c2.236,-0.001999 4.078999,1.797001 4.120998,4.049l0,0.074001z" fill="#ffffff" fill-rule="evenodd"/>
  </g>
  <g id="Shape4">
   <desc fill="#ffffff" transform="translate(-2.0425045490264893,-0.41099169850349426) translate(0,-0.13850416243076324) translate(0,-0.13850416243076324) translate(0.13850416243076324,0) translate(1,0) "/>
   <path id="shapePath4" d="m61.367001,15.976c0.049999,0.294001 0.075001,0.594 0.075001,0.899c0,0.313 -0.027,0.638 -0.086002,0.972l4.925999,0.861c0.106003,-0.610001 0.161003,-1.223 0.160004,-1.833c0.000999,-0.587999 -0.050003,-1.169001 -0.146004,-1.736l-4.928997,0.837z" fill="#ffffff" fill-rule="evenodd"/>
  </g>
  <g id="Shape5">
   <desc fill="#ffffff" transform="translate(-2.0425045490264893,-0.41099169850349426) translate(0,-0.13850416243076324) translate(0,-0.13850416243076324) translate(0.13850416243076324,0) translate(1,0) "/>
   <path id="shapePath5" d="m55.131001,6.486c-1.334999,0.111 -2.615002,0.48 -3.777,1.061l2.234001,4.473001c0.606998,-0.303 1.27,-0.492001 1.960999,-0.551001l-0.417999,-4.983z" fill="#ffffff" fill-rule="evenodd"/>
  </g>
  <g id="Shape6">
   <desc fill="#ffffff" transform="translate(-2.0425045490264893,-0.41099169850349426) translate(0,-0.13850416243076324) translate(0,-0.13850416243076324) translate(0.13850416243076324,0) translate(1,0) "/>
   <path id="shapePath6" d="m60.737,7.582001l-2.264,4.459l-0.000999,0c0.617001,0.312 1.160999,0.74 1.611,1.25l3.752998,-3.303c-0.859001,-0.976999 -1.906998,-1.799999 -3.098999,-2.405999z" fill="#ffffff" fill-rule="evenodd"/>
  </g>
  <g id="Shape7">
   <desc fill="#ffffff" transform="translate(-2.0425045490264893,-0.41099169850349426) translate(0,-0.13850416243076324) translate(0,-0.13850416243076324) translate(0.13850416243076324,0) translate(1,0) "/>
   <path id="shapePath7" d="m45.735001,15.055l4.924,0.879l-0.000999,-0.000999c0.125999,-0.703 0.376999,-1.341001 0.728001,-1.908l-4.25,-2.633c-0.678001,1.092 -1.163002,2.33 -1.401001,3.663z" fill="#ffffff" fill-rule="evenodd"/>
  </g>
 </g>
</svg>